<svg id="Layer_1" data-name="Layer 1" xmlns="http://www.w3.org/2000/svg" viewBox="0 0 1319.76 905.52"><defs><style>.cls-5{opacity:.02;fill:#fff}</style><clipPath id="clip-path"><path fill="none" d="M0 0h1319.76v905.52H0z"/></clipPath></defs><path opacity=".02" stroke-miterlimit="10" stroke="#fff" stroke-width="9" fill="none" d="M165.35 650.08V499.14L31.66 423.67l-133.69 75.47v150.94l133.69 75.47 133.69-75.47z"/><g clip-path="url(#clip-path)"><path d="M1288.89 593.83V448.81l-128.46-72.52-128.45 72.52v145.02l128.45 72.52 128.46-72.52zm-168.07-280.15V196.96l-103.39-58.36-103.38 58.36v116.72l103.38 58.36 103.39-58.36zm337.97 604.54V767.6l-133.4-75.31-133.41 75.31v150.62l133.41 75.31 133.4-75.31z" stroke="#000" stroke-width="2" opacity=".02" fill="none" stroke-miterlimit="10"/><path class="cls-5" d="M1024.62 443.68V225.05L830.97 115.73 637.32 225.05v218.63l193.65 109.31 193.65-109.31zm257.98 344.98V570.03l-193.65-109.31-193.64 109.31v218.63l193.64 109.31 193.65-109.31z"/><path class="cls-5" d="M1020.01 482.09V301.84l-159.66-90.13-159.66 90.13v180.25l159.66 90.13 159.66-90.13z"/><path opacity=".03" fill="#fff" d="M997.35 767.84v-76.78l-68-38.39-68.01 38.39v76.78l68.01 38.39 68-38.39z"/><path class="cls-5" d="M1586.7 460.52V252.34l-184.4-104.1-184.4 104.1v208.18l184.4 104.1 184.4-104.1z"/><path class="cls-5" d="M1650.66 690.87V495.12l-173.38-97.88-173.38 97.88v195.75l173.38 97.87 173.38-97.87zm-399.17-464.59V100.16l-111.7-63.05-111.71 63.05v126.12l111.71 63.05 111.7-63.05zm202.89-47.4v-107l-94.78-53.51-94.78 53.51v107l94.78 53.5 94.78-53.5z"/><path d="M1265.4 385.94l77.41 42.68 101.61-56V260.28l-101.61-56-101.61 56V349l-65.2-36-1-.53-90.35 49.81v14.08l-62.53-35.3L910.78 404v125.9L1003 582v183l202 111.36L1407 765v-85.59l3.54-1.95v-98.92l-3.54-1.95v-34.73L1263.85 463l1.55-.85zm-17.2-121.53l94.61-52.16 94.61 52.16v104.06l-94.61 52.16L1265.4 378v-15.69l-17.2-9.48zm0 93l13.2 7.27v11.07l-13.2-7.27zM919.78 524.65V409.23l102.39-57.8 62.53 35.3v75.37l31.49 17.36-113.19 62.4v29.77zm204.78-49.81l-4.23 2.33-31.63-17.44V389l35.86 20.24zm9 5.32l71.44-39.39 45.39 25-75.33 41.53-41.49-22.88zm-9 5v39.53l-102.39 57.8-10.17-5.78v-29.54zM1398 679.81l-77 42.47-85.56-47.18v-94.19l85.56-47.18 77 42.47zm0-132.64v24.46l-76.1-41.93-1-.54-89.56 49.38v98.92l88.6 48.85 1 .53 77-42.47v75.24L1205 866l-193-106.4V587.05l10.16 5.73 111.39-62.88V489l40.53 22.35 1 .53 79.48-43.82zM1205 430.5l-71.43 39.38V404l-44.86-25.32v-14l86.35-47.61 66.15 36.48v19.05l20.2 11.14v76l-1.7.94zm137.81-278.26l99.08-54.62 1-.57V-13.5l-99.14-54.66-1-.54-100.05 55.2V97.05l99.15 54.66zM1246.7-11.14l96.11-53 96.11 53V94.69l-96.11 53-96.11-53zm-234.14 222V24.77L847.94-68.16 683.32 24.77v56.49l-54.57 30.81v-10.16l-87.44-49.36-87.43 49.36v98.79l87.43 49.36 29.52-16.66v97.46l164.62 92.92 164.62-92.92v-56.5zM695.32 31.78l152.62-86.16 152.62 86.16v172.08l-100.49 56.73V144.77L735.45 51.84l-40.13 22.65zm0 56.49l40.13-22.65 152.62 86.15v115.59L847.94 290l-152.62-86.14zm-154 157.19l-83.43-47.09v-94.12l83.43-47.1 83.44 47.1v10.08l-53.92 30.44v84zm83.44-117.35v70.26L582.83 222v-70.23zm263.31 195.74L735.45 410l-152.62-86.15v-97.23l45.92-25.92v-74.85L683.32 95v115.86l164.62 92.93 40.13-22.65zm-216.2 145.57V573.1l91.78 51.81 91.78-51.81V469.42l-91.78-51.81zm180.56 101.93l-88.78 50.12-88.78-50.12V471.17l88.78-50.11 88.78 50.11zm388.45-346.16V107.91l-103.77-58.58-103.76 58.58v117.28l103.76 58.58zM1040.35 112l96.76-54.62 96.77 54.62v109.11l-96.77 54.62-96.76-54.62z" fill="#fff" opacity=".04"/></g></svg>