<svg id="Layer_1" data-name="Layer 1" xmlns="http://www.w3.org/2000/svg" xmlns:xlink="http://www.w3.org/1999/xlink" viewBox="0 0 1319.76 905.52"><defs><style>.cls-1,.cls-2,.cls-4{fill:none;}.cls-2{stroke:#fff;stroke-width:9px;}.cls-2,.cls-4{stroke-miterlimit:10;}.cls-2,.cls-4,.cls-5{opacity:0.02;}.cls-3{clip-path:url(#clip-path);}.cls-4{stroke:#000;stroke-width:2px;}.cls-5,.cls-6,.cls-8{fill:#fff;}.cls-6{opacity:0.03;}.cls-7{opacity:0.04;}</style><clipPath id="clip-path"><rect class="cls-1" width="1319.76" height="905.52"/></clipPath></defs><title>Artboard 24</title><polygon class="cls-2" points="165.35 650.08 165.35 499.14 31.66 423.67 -102.03 499.14 -102.03 650.08 31.66 725.55 165.35 650.08"/><g class="cls-3"><polygon class="cls-4" points="1288.89 593.83 1288.89 448.81 1160.43 376.29 1031.98 448.81 1031.98 593.83 1160.43 666.35 1288.89 593.83"/><polygon class="cls-4" points="1120.82 313.68 1120.82 196.96 1017.43 138.6 914.05 196.96 914.05 313.68 1017.43 372.04 1120.82 313.68"/><polygon class="cls-4" points="1458.79 918.22 1458.79 767.6 1325.39 692.29 1191.98 767.6 1191.98 918.22 1325.39 993.53 1458.79 918.22"/><polygon class="cls-5" points="1024.62 443.68 1024.62 225.05 830.97 115.73 637.32 225.05 637.32 443.68 830.97 552.99 1024.62 443.68"/><polygon class="cls-5" points="1282.6 788.66 1282.6 570.03 1088.95 460.72 895.31 570.03 895.31 788.66 1088.95 897.97 1282.6 788.66"/><polygon class="cls-5" points="1020.01 482.09 1020.01 301.84 860.35 211.71 700.69 301.84 700.69 482.09 860.35 572.22 1020.01 482.09"/><polygon class="cls-6" points="997.35 767.84 997.35 691.06 929.35 652.67 861.34 691.06 861.34 767.84 929.35 806.23 997.35 767.84"/><polygon class="cls-5" points="1586.7 460.52 1586.7 252.34 1402.3 148.24 1217.9 252.34 1217.9 460.52 1402.3 564.62 1586.7 460.52"/><polygon class="cls-5" points="1650.66 690.87 1650.66 495.12 1477.28 397.24 1303.9 495.12 1303.9 690.87 1477.28 788.74 1650.66 690.87"/><polygon class="cls-5" points="1251.49 226.28 1251.49 100.16 1139.79 37.11 1028.08 100.16 1028.08 226.28 1139.79 289.33 1251.49 226.28"/><polygon class="cls-5" points="1454.38 178.88 1454.38 71.88 1359.6 18.37 1264.82 71.88 1264.82 178.88 1359.6 232.38 1454.38 178.88"/><g class="cls-7"><path class="cls-8" d="M1265.4,385.94l77.41,42.68,101.61-56V260.28l-101.61-56-101.61,56V349L1176,313l-1-.53-90.35,49.81v14.08l-62.53-35.3L910.78,404V529.9L1003,582v183l202,111.36,202-111.36V679.41l3.54-1.95V578.54l-3.54-1.95V541.86L1263.85,463l1.55-.85Zm-17.2-121.53,94.61-52.16,94.61,52.16V368.47l-94.61,52.16L1265.4,378V362.31l-17.2-9.48Zm0,93,13.2,7.27v11.07l-13.2-7.27ZM919.78,524.65V409.23l102.39-57.8,62.53,35.3V462.1l31.49,17.36L1003,541.86v29.77Zm204.78-49.81-4.23,2.33-31.63-17.44V389l35.86,20.24Zm9,5.32L1205,440.77l45.39,25-75.33,41.53-41.49-22.88Zm-9,5v39.53l-102.39,57.8L1012,576.71V547.17ZM1398,679.81l-77,42.47-85.56-47.18V580.91l85.56-47.18,77,42.47Zm0-132.64v24.46L1321.9,529.7l-1-.54-89.56,49.38v98.92l88.6,48.85,1,.53,77-42.47v75.24L1205,866l-193-106.4V587.05l10.16,5.73,111.39-62.88V489l40.53,22.35,1,.53,79.48-43.82ZM1205,430.5l-71.43,39.38V404l-44.86-25.32v-14l86.35-47.61,66.15,36.48V372.6l20.2,11.14v76l-1.7.94Z"/><path class="cls-8" d="M1342.81,152.24l99.08-54.62,1-.57V-13.5l-99.14-54.66-1-.54L1242.7-13.5V97.05l99.15,54.66ZM1246.7-11.14l96.11-53,96.11,53V94.69l-96.11,53-96.11-53Z"/><path class="cls-8" d="M1012.56,210.86V24.77L847.94-68.16,683.32,24.77V81.26l-54.57,30.81V101.91L541.31,52.55l-87.43,49.36V200.7l87.43,49.36,29.52-16.66v97.46l164.62,92.92,164.62-92.92v-56.5ZM695.32,31.78,847.94-54.38l152.62,86.16V203.86L900.07,260.59V144.77L735.45,51.84,695.32,74.49Zm0,56.49,40.13-22.65,152.62,86.15V267.36L847.94,290,695.32,203.86Zm-154,157.19-83.43-47.09V104.25l83.43-47.1,83.44,47.1v10.08l-53.92,30.44v84Zm83.44-117.35v70.26L582.83,222V151.77ZM888.07,323.85,735.45,410,582.83,323.85V226.62l45.92-25.92V125.85L683.32,95V210.86l164.62,92.93,40.13-22.65Z"/><path class="cls-8" d="M671.87,469.42V573.1l91.78,51.81,91.78-51.81V469.42l-91.78-51.81ZM852.43,571.35l-88.78,50.12-88.78-50.12V471.17l88.78-50.11,88.78,50.11Z"/><path class="cls-8" d="M1240.88,225.19V107.91L1137.11,49.33l-103.76,58.58V225.19l103.76,58.58ZM1040.35,112l96.76-54.62L1233.88,112V221.11l-96.77,54.62-96.76-54.62Z"/></g></g></svg>